<mxfile host="Electron" modified="2024-10-07T12:59:16.489Z" agent="Mozilla/5.0 (X11; Linux x86_64) AppleWebKit/537.36 (KHTML, like Gecko) draw.io/24.1.0 Chrome/120.0.6099.109 Electron/28.1.0 Safari/537.36" etag="I-kE5-kFghIjJS6O_Fx0" version="24.1.0" type="device">
  <diagram name="Page-1" id="-cMVqA2Gkwa5aGeDibPs">
    <mxGraphModel dx="1362" dy="1243" grid="1" gridSize="10" guides="1" tooltips="1" connect="1" arrows="1" fold="1" page="0" pageScale="1" pageWidth="413" pageHeight="583" math="1" shadow="0">
      <root>
        <mxCell id="0" />
        <mxCell id="1" parent="0" />
        <mxCell id="eN8Zq5XajQ-hrPbZrUXH-4" value="" style="edgeStyle=orthogonalEdgeStyle;rounded=0;orthogonalLoop=1;jettySize=auto;html=1;exitX=1;exitY=0.5;exitDx=0;exitDy=0;entryX=0;entryY=0.25;entryDx=0;entryDy=0;" parent="1" source="HanA1OKdP7TFDTROJioc-21" target="HV3P0yh9cOvrx5BpRkT5-2" edge="1">
          <mxGeometry relative="1" as="geometry">
            <mxPoint x="80" as="sourcePoint" />
            <mxPoint x="120" as="targetPoint" />
          </mxGeometry>
        </mxCell>
        <mxCell id="GCO7xrDp6TmdYOZJOnFd-127" style="edgeStyle=orthogonalEdgeStyle;rounded=0;orthogonalLoop=1;jettySize=auto;html=1;exitX=0.5;exitY=1;exitDx=0;exitDy=0;" parent="1" source="GCO7xrDp6TmdYOZJOnFd-99" edge="1">
          <mxGeometry relative="1" as="geometry">
            <mxPoint x="880.2" y="110.20000000000005" as="targetPoint" />
          </mxGeometry>
        </mxCell>
        <mxCell id="GCO7xrDp6TmdYOZJOnFd-99" value="$$Kp + \frac{Ki}{s}$$" style="rounded=0;whiteSpace=wrap;html=1;" parent="1" vertex="1">
          <mxGeometry x="840" y="40" width="80" height="80" as="geometry" />
        </mxCell>
        <mxCell id="GCO7xrDp6TmdYOZJOnFd-110" value="" style="endArrow=none;html=1;exitX=0.5;exitY=0;exitDx=0;exitDy=0;" parent="1" source="GCO7xrDp6TmdYOZJOnFd-99" edge="1">
          <mxGeometry width="50" height="50" relative="1" as="geometry">
            <mxPoint x="880" y="50" as="sourcePoint" />
            <mxPoint x="900" y="30" as="targetPoint" />
          </mxGeometry>
        </mxCell>
        <mxCell id="GCO7xrDp6TmdYOZJOnFd-111" value="" style="endArrow=none;html=1;" parent="1" edge="1">
          <mxGeometry width="50" height="50" relative="1" as="geometry">
            <mxPoint x="900" y="30" as="sourcePoint" />
            <mxPoint x="920" y="30" as="targetPoint" />
          </mxGeometry>
        </mxCell>
        <mxCell id="GCO7xrDp6TmdYOZJOnFd-112" value="&lt;font style=&quot;font-size: 9px;&quot;&gt;$$0$$&lt;/font&gt;" style="text;html=1;strokeColor=none;fillColor=none;align=center;verticalAlign=middle;whiteSpace=wrap;rounded=0;fontSize=15;" parent="1" vertex="1">
          <mxGeometry x="840" width="160" height="30" as="geometry" />
        </mxCell>
        <mxCell id="GCO7xrDp6TmdYOZJOnFd-113" value="" style="endArrow=none;html=1;" parent="1" edge="1">
          <mxGeometry width="50" height="50" relative="1" as="geometry">
            <mxPoint x="841" y="130" as="sourcePoint" />
            <mxPoint x="821" y="130" as="targetPoint" />
          </mxGeometry>
        </mxCell>
        <mxCell id="GCO7xrDp6TmdYOZJOnFd-114" value="&lt;font style=&quot;font-size: 9px;&quot;&gt;$$VMinPu$$&lt;/font&gt;" style="text;html=1;strokeColor=none;fillColor=none;align=center;verticalAlign=middle;whiteSpace=wrap;rounded=0;fontSize=15;" parent="1" vertex="1">
          <mxGeometry x="760" y="126" width="120" height="30" as="geometry" />
        </mxCell>
        <mxCell id="GCO7xrDp6TmdYOZJOnFd-115" value="" style="endArrow=none;html=1;exitX=0.5;exitY=0;exitDx=0;exitDy=0;entryX=0.25;entryY=1;entryDx=0;entryDy=0;" parent="1" target="GCO7xrDp6TmdYOZJOnFd-99" edge="1">
          <mxGeometry width="50" height="50" relative="1" as="geometry">
            <mxPoint x="841" y="130" as="sourcePoint" />
            <mxPoint x="861" y="110" as="targetPoint" />
          </mxGeometry>
        </mxCell>
        <mxCell id="qLZYFt0uQZEpN5fuRu8l-23" value="" style="endArrow=classic;html=1;rounded=0;entryX=0;entryY=0.5;entryDx=0;entryDy=0;exitX=1;exitY=0.5;exitDx=0;exitDy=0;" parent="1" source="GCO7xrDp6TmdYOZJOnFd-99" target="HanA1OKdP7TFDTROJioc-18" edge="1">
          <mxGeometry width="50" height="50" relative="1" as="geometry">
            <mxPoint x="940" y="110" as="sourcePoint" />
            <mxPoint x="1000" y="80" as="targetPoint" />
          </mxGeometry>
        </mxCell>
        <mxCell id="HanA1OKdP7TFDTROJioc-18" value="$$UOelPu$$" style="text;strokeColor=none;align=center;fillColor=none;html=1;verticalAlign=middle;whiteSpace=wrap;rounded=0;" parent="1" vertex="1">
          <mxGeometry x="960" y="65" width="60" height="30" as="geometry" />
        </mxCell>
        <mxCell id="HanA1OKdP7TFDTROJioc-21" value="$$QRefPu$$" style="text;strokeColor=none;align=center;fillColor=none;html=1;verticalAlign=middle;whiteSpace=wrap;rounded=0;" parent="1" vertex="1">
          <mxGeometry x="20" y="-15" width="60" height="30" as="geometry" />
        </mxCell>
        <mxCell id="HV3P0yh9cOvrx5BpRkT5-9" value="" style="edgeStyle=orthogonalEdgeStyle;rounded=0;orthogonalLoop=1;jettySize=auto;html=1;entryX=0;entryY=0.5;entryDx=0;entryDy=0;" parent="1" source="HV3P0yh9cOvrx5BpRkT5-2" target="f8tb1gPqIUmWR4lEqppA-5" edge="1">
          <mxGeometry relative="1" as="geometry">
            <mxPoint x="280" y="80" as="targetPoint" />
          </mxGeometry>
        </mxCell>
        <mxCell id="HV3P0yh9cOvrx5BpRkT5-2" value="&lt;table style=&quot;&quot;&gt;&lt;tbody&gt;&lt;tr&gt;&lt;td&gt;&lt;font style=&quot;font-size: 12px;&quot;&gt;$$1$$&lt;/font&gt;&lt;/td&gt;&lt;/tr&gt;&lt;tr&gt;&lt;td&gt;&lt;font style=&quot;font-size: 12px;&quot;&gt;$$-1$$&lt;/font&gt;&lt;/td&gt;&lt;/tr&gt;&lt;/tbody&gt;&lt;/table&gt;" style="whiteSpace=wrap;html=1;aspect=fixed;" parent="1" vertex="1">
          <mxGeometry x="160" y="40" width="80" height="80" as="geometry" />
        </mxCell>
        <mxCell id="f8tb1gPqIUmWR4lEqppA-4" value="" style="edgeStyle=orthogonalEdgeStyle;rounded=0;orthogonalLoop=1;jettySize=auto;html=1;" edge="1" parent="1" source="HV3P0yh9cOvrx5BpRkT5-11" target="GCO7xrDp6TmdYOZJOnFd-99">
          <mxGeometry relative="1" as="geometry" />
        </mxCell>
        <mxCell id="HV3P0yh9cOvrx5BpRkT5-11" value="" style="whiteSpace=wrap;html=1;aspect=fixed;" parent="1" vertex="1">
          <mxGeometry x="720" y="40" width="80" height="80" as="geometry" />
        </mxCell>
        <mxCell id="HV3P0yh9cOvrx5BpRkT5-12" value="" style="endArrow=none;html=1;startArrow=none;" parent="1" source="HV3P0yh9cOvrx5BpRkT5-20" edge="1">
          <mxGeometry width="50" height="50" relative="1" as="geometry">
            <mxPoint x="780" y="80" as="sourcePoint" />
            <mxPoint x="800" y="80" as="targetPoint" />
          </mxGeometry>
        </mxCell>
        <mxCell id="HV3P0yh9cOvrx5BpRkT5-13" value="" style="endArrow=none;html=1;" parent="1" edge="1">
          <mxGeometry width="50" height="50" relative="1" as="geometry">
            <mxPoint x="711" y="60" as="sourcePoint" />
            <mxPoint x="741" y="60" as="targetPoint" />
          </mxGeometry>
        </mxCell>
        <mxCell id="HV3P0yh9cOvrx5BpRkT5-14" value="" style="endArrow=none;html=1;" parent="1" edge="1">
          <mxGeometry width="50" height="50" relative="1" as="geometry">
            <mxPoint x="710" y="79.79999999999995" as="sourcePoint" />
            <mxPoint x="740" y="79.79999999999995" as="targetPoint" />
          </mxGeometry>
        </mxCell>
        <mxCell id="HV3P0yh9cOvrx5BpRkT5-15" value="" style="endArrow=none;html=1;" parent="1" edge="1">
          <mxGeometry width="50" height="50" relative="1" as="geometry">
            <mxPoint x="710" y="100" as="sourcePoint" />
            <mxPoint x="740" y="100" as="targetPoint" />
          </mxGeometry>
        </mxCell>
        <mxCell id="HV3P0yh9cOvrx5BpRkT5-16" value="" style="shape=waypoint;sketch=0;fillStyle=solid;size=4;pointerEvents=1;points=[];fillColor=none;resizable=0;rotatable=0;perimeter=centerPerimeter;snapToPoint=1;" parent="1" vertex="1">
          <mxGeometry x="730" y="50" width="20" height="20" as="geometry" />
        </mxCell>
        <mxCell id="HV3P0yh9cOvrx5BpRkT5-17" value="" style="shape=waypoint;sketch=0;fillStyle=solid;size=4;pointerEvents=1;points=[];fillColor=none;resizable=0;rotatable=0;perimeter=centerPerimeter;snapToPoint=1;" parent="1" vertex="1">
          <mxGeometry x="730" y="70" width="20" height="20" as="geometry" />
        </mxCell>
        <mxCell id="HV3P0yh9cOvrx5BpRkT5-18" value="" style="shape=waypoint;sketch=0;fillStyle=solid;size=4;pointerEvents=1;points=[];fillColor=none;resizable=0;rotatable=0;perimeter=centerPerimeter;snapToPoint=1;" parent="1" vertex="1">
          <mxGeometry x="730" y="90" width="20" height="20" as="geometry" />
        </mxCell>
        <mxCell id="HV3P0yh9cOvrx5BpRkT5-19" value="" style="endArrow=none;html=1;" parent="1" target="HV3P0yh9cOvrx5BpRkT5-20" edge="1">
          <mxGeometry width="50" height="50" relative="1" as="geometry">
            <mxPoint x="780" y="80" as="sourcePoint" />
            <mxPoint x="800" y="80" as="targetPoint" />
          </mxGeometry>
        </mxCell>
        <mxCell id="HV3P0yh9cOvrx5BpRkT5-20" value="" style="shape=waypoint;sketch=0;fillStyle=solid;size=4;pointerEvents=1;points=[];fillColor=none;resizable=0;rotatable=0;perimeter=centerPerimeter;snapToPoint=1;" parent="1" vertex="1">
          <mxGeometry x="771" y="70" width="20" height="20" as="geometry" />
        </mxCell>
        <mxCell id="HV3P0yh9cOvrx5BpRkT5-21" value="" style="endArrow=none;html=1;" parent="1" edge="1">
          <mxGeometry width="50" height="50" relative="1" as="geometry">
            <mxPoint x="740" y="90" as="sourcePoint" />
            <mxPoint x="780" y="80" as="targetPoint" />
          </mxGeometry>
        </mxCell>
        <mxCell id="HV3P0yh9cOvrx5BpRkT5-26" value="&lt;span style=&quot;background-color: initial;&quot;&gt;$$0$$&lt;/span&gt;" style="whiteSpace=wrap;html=1;aspect=fixed;" parent="1" vertex="1">
          <mxGeometry x="560" y="-80" width="80" height="80" as="geometry" />
        </mxCell>
        <mxCell id="HV3P0yh9cOvrx5BpRkT5-27" value="" style="endArrow=classic;html=1;rounded=0;exitX=1;exitY=0.5;exitDx=0;exitDy=0;" parent="1" source="HV3P0yh9cOvrx5BpRkT5-26" target="HV3P0yh9cOvrx5BpRkT5-16" edge="1">
          <mxGeometry width="50" height="50" relative="1" as="geometry">
            <mxPoint x="490" y="80" as="sourcePoint" />
            <mxPoint x="540" y="30" as="targetPoint" />
            <Array as="points">
              <mxPoint x="680" y="-40" />
              <mxPoint x="680" y="60" />
            </Array>
          </mxGeometry>
        </mxCell>
        <mxCell id="f8tb1gPqIUmWR4lEqppA-9" value="" style="edgeStyle=orthogonalEdgeStyle;rounded=0;orthogonalLoop=1;jettySize=auto;html=1;" edge="1" parent="1" source="HV3P0yh9cOvrx5BpRkT5-31" target="HV3P0yh9cOvrx5BpRkT5-37">
          <mxGeometry relative="1" as="geometry" />
        </mxCell>
        <mxCell id="HV3P0yh9cOvrx5BpRkT5-31" value="$$timer$$" style="whiteSpace=wrap;html=1;aspect=fixed;" parent="1" vertex="1">
          <mxGeometry x="440" y="40" width="80" height="80" as="geometry" />
        </mxCell>
        <mxCell id="HV3P0yh9cOvrx5BpRkT5-37" value="&lt;span style=&quot;background-color: initial;&quot;&gt;$$&amp;lt; tDelay$$&lt;/span&gt;" style="whiteSpace=wrap;html=1;aspect=fixed;" parent="1" vertex="1">
          <mxGeometry x="560" y="40" width="80" height="80" as="geometry" />
        </mxCell>
        <mxCell id="f8tb1gPqIUmWR4lEqppA-2" value="" style="edgeStyle=orthogonalEdgeStyle;rounded=0;orthogonalLoop=1;jettySize=auto;html=1;entryX=0;entryY=0.75;entryDx=0;entryDy=0;" edge="1" parent="1" source="f8tb1gPqIUmWR4lEqppA-1" target="HV3P0yh9cOvrx5BpRkT5-2">
          <mxGeometry relative="1" as="geometry">
            <mxPoint x="120" y="160" as="targetPoint" />
          </mxGeometry>
        </mxCell>
        <mxCell id="f8tb1gPqIUmWR4lEqppA-1" value="$$QGenPu$$" style="text;strokeColor=none;align=center;fillColor=none;html=1;verticalAlign=middle;whiteSpace=wrap;rounded=0;" vertex="1" parent="1">
          <mxGeometry x="20" y="145" width="60" height="30" as="geometry" />
        </mxCell>
        <mxCell id="f8tb1gPqIUmWR4lEqppA-8" value="" style="edgeStyle=orthogonalEdgeStyle;rounded=0;orthogonalLoop=1;jettySize=auto;html=1;" edge="1" parent="1" source="f8tb1gPqIUmWR4lEqppA-5" target="HV3P0yh9cOvrx5BpRkT5-31">
          <mxGeometry relative="1" as="geometry" />
        </mxCell>
        <mxCell id="f8tb1gPqIUmWR4lEqppA-5" value="&lt;span style=&quot;background-color: initial;&quot;&gt;$$&amp;lt; 0$$&lt;/span&gt;" style="whiteSpace=wrap;html=1;aspect=fixed;" vertex="1" parent="1">
          <mxGeometry x="320" y="40" width="80" height="80" as="geometry" />
        </mxCell>
        <mxCell id="f8tb1gPqIUmWR4lEqppA-7" value="" style="endArrow=classic;html=1;rounded=0;exitX=1;exitY=0.5;exitDx=0;exitDy=0;entryX=0.4;entryY=0.25;entryDx=0;entryDy=0;entryPerimeter=0;" edge="1" parent="1" source="HV3P0yh9cOvrx5BpRkT5-37" target="HV3P0yh9cOvrx5BpRkT5-17">
          <mxGeometry width="50" height="50" relative="1" as="geometry">
            <mxPoint x="570" y="180" as="sourcePoint" />
            <mxPoint x="620" y="130" as="targetPoint" />
          </mxGeometry>
        </mxCell>
        <mxCell id="f8tb1gPqIUmWR4lEqppA-10" value="" style="endArrow=classic;html=1;rounded=0;exitX=1;exitY=0.5;exitDx=0;exitDy=0;entryX=0.8;entryY=0.4;entryDx=0;entryDy=0;entryPerimeter=0;" edge="1" parent="1" source="HV3P0yh9cOvrx5BpRkT5-2" target="HV3P0yh9cOvrx5BpRkT5-18">
          <mxGeometry width="50" height="50" relative="1" as="geometry">
            <mxPoint x="570" y="180" as="sourcePoint" />
            <mxPoint x="620" y="130" as="targetPoint" />
            <Array as="points">
              <mxPoint x="280" y="80" />
              <mxPoint x="280" y="160" />
              <mxPoint x="680" y="160" />
              <mxPoint x="680" y="100" />
            </Array>
          </mxGeometry>
        </mxCell>
      </root>
    </mxGraphModel>
  </diagram>
</mxfile>
